<svg xmlns="http://www.w3.org/2000/svg" width="53.498" height="52.098" viewBox="0 0 53.498 52.098">
  <g id="Grupo_2" data-name="Grupo 2" transform="translate(-852.502 -229.057)">
    <path id="Trazado_2" data-name="Trazado 2" d="M904.63,254.85a6.294,6.294,0,0,0,.468-.705,6.506,6.506,0,0,0-7.87-9.326c-.084-.148-.168-.3-.255-.444a6.51,6.51,0,0,0-5.177-11.332,6.616,6.616,0,0,0-.375-.76,6.5,6.5,0,0,0-12.018,2.111c-.051,0-.1,0-.152,0-.2,0-.39.009-.583.015a6.511,6.511,0,0,0-12.413-1.1,6.733,6.733,0,0,0-.846-.049,6.506,6.506,0,0,0-4.1,11.495c-.084.146-.17.29-.251.438a6.51,6.51,0,0,0-7.19,10.174,6.5,6.5,0,0,0,7.4,10.031c.085.147.167.3.254.444a6.512,6.512,0,0,0,5.178,11.333,6.376,6.376,0,0,0,.375.76,6.506,6.506,0,0,0,12.019-2.113c.05,0,.1,0,.151,0,.2,0,.389-.009.584-.014a6.509,6.509,0,0,0,12.411,1.1,6.228,6.228,0,0,0,.845.049,6.5,6.5,0,0,0,4.1-11.494c.085-.146.171-.289.252-.438a6.51,6.51,0,0,0,7.19-10.174" fill="#f37c31"/>
    <path id="Trazado_3" data-name="Trazado 3" d="M894.284,254.955a3.777,3.777,0,0,0,.277-.418,3.854,3.854,0,0,0-4.662-5.524c-.05-.088-.1-.177-.151-.263a3.857,3.857,0,0,0-3.066-6.713,3.991,3.991,0,0,0-.222-.45,3.854,3.854,0,0,0-7.119,1.251l-.09,0c-.116,0-.231.005-.345.009a3.857,3.857,0,0,0-7.353-.653,4.123,4.123,0,0,0-.5-.029,3.854,3.854,0,0,0-2.426,6.809c-.05.086-.1.172-.149.26a3.855,3.855,0,0,0-4.258,6.026,3.778,3.778,0,0,0-.278.417A3.853,3.853,0,0,0,868.6,261.2c.05.088.1.177.151.263a6.076,6.076,0,1,0,10.407,5.912l.09,0c.116,0,.23-.005.346-.009a3.855,3.855,0,0,0,7.351.652,3.618,3.618,0,0,0,.5.029,3.853,3.853,0,0,0,2.427-6.808c.05-.086.1-.171.149-.259a3.856,3.856,0,0,0,4.259-6.026" fill="#ec8c58"/>
    <path id="Trazado_4" data-name="Trazado 4" d="M879.251,246.746a8.359,8.359,0,1,0,8.358,8.36,8.369,8.369,0,0,0-8.358-8.36m0,13.709a5.349,5.349,0,1,1,5.351-5.349,5.354,5.354,0,0,1-5.351,5.349" fill="#f37c31"/>
  </g>
</svg>
